<svg width="72" height="28" viewBox="0 0 72 28" fill="none" xmlns="http://www.w3.org/2000/svg">
<g clip-path="url(#clip0_7035_26178)">
<path d="M13.7632 7.12109H18.6986V9.8856C20.3156 7.40108 22.1765 7.12109 24.9005 7.12109V12.0066H23.6599C20.3958 12.0066 18.833 13.5426 18.833 16.5854V21.7784H13.7632V7.12109Z" fill="white"/>
<path d="M41.3679 21.7784H36.2989V20.3811C35.1919 21.6656 33.6834 22.2238 31.8235 22.2238C28.2914 22.2238 26.2944 20.1295 26.2944 16.2778V7.12109H31.3634V15.1346C31.3634 16.9481 32.2533 18.0085 33.7627 18.0085C35.272 18.0085 36.298 16.9748 36.298 15.2173V7.12109H41.367V21.7784H41.3679Z" fill="white"/>
<path d="M42.6069 17.2539H47.3546C47.5708 18.3144 48.2988 18.7607 50.0502 18.7607C51.4802 18.7607 52.3159 18.4264 52.3159 17.8122C52.3159 17.3366 51.911 17.0291 50.7531 16.7784L46.9238 15.9126C44.3618 15.3276 43.067 13.8476 43.067 11.4733C43.067 8.34529 45.3585 6.72656 49.8081 6.72656C54.2577 6.72656 56.4415 8.30394 56.8206 11.6835H52.1022C52.0221 10.791 51.1038 10.2449 49.5944 10.2449C48.3815 10.2449 47.601 10.6351 47.601 11.2227C47.601 11.7249 48.1118 12.1152 49.1387 12.3684L53.1558 13.3462C55.798 13.9872 57.067 15.3285 57.067 17.5055C57.067 20.5215 54.4506 22.3082 50.0036 22.3082C45.5567 22.3082 42.6147 20.382 42.6147 17.2539H42.6095H42.6069Z" fill="white"/>
<path d="M70.5635 11.6801V7.12109H58.0513V11.6827H61.785V21.7784H66.8281V11.6801H70.5635Z" fill="white"/>
<path d="M12.3517 11.6801V7.12109H-0.159668V11.6827H3.57401V21.7784H8.61801V11.6801H12.3517Z" fill="white"/>
</g>
<defs>
<clipPath id="clip0_7035_26178">
<rect width="71" height="28" fill="white" transform="translate(0.0493164)"/>
</clipPath>
</defs>
</svg>
