<svg width="98" height="30" viewBox="0 0 98 30" fill="none" xmlns="http://www.w3.org/2000/svg">
<g clip-path="url(#clip0_7032_6856)">
<path d="M32.7129 16.0926V5.98047H33.6739C34.0496 5.98047 34.4099 6.13064 34.6756 6.39795C34.9412 6.66526 35.0905 7.02781 35.0905 7.40584V11.9027C36.6302 10.5194 37.9423 9.96645 39.6868 9.93071C43.0297 9.86134 45.9546 12.3652 46.222 15.7247C46.5521 19.7401 43.6502 22.7611 39.8707 22.7611C35.7235 22.7611 32.7129 20.1711 32.7129 16.0926ZM35.0529 16.8873C35.2869 18.977 37.2717 20.703 39.363 20.7366C42.079 20.7786 43.9447 18.9917 43.9447 16.3449C43.9447 13.6981 42.1313 11.951 39.48 11.951C36.6491 11.951 34.7311 14.0218 35.0529 16.8873ZM50.1958 10.1851V11.9868C51.6917 10.3049 52.5817 9.86554 54.3326 9.86554C54.8427 9.8663 55.352 9.90778 55.8556 9.98958V12.382C55.318 12.2329 54.7628 12.1579 54.2051 12.1592C52.9369 12.1592 51.8714 12.5796 51.0838 13.368C50.3985 14.0597 50.1958 14.6021 50.1958 15.6805V22.3428H47.7347V10.1851H50.1958ZM56.4385 14.2047C56.566 13.0211 56.7937 12.3799 57.3014 11.7618C58.3168 10.5004 60.1449 9.86975 62.7335 9.86975C64.7893 9.86975 66.2852 10.1914 67.3298 10.881C68.1927 11.4486 68.5479 12.2874 68.5479 13.7674V19.1704C68.5479 20.354 68.8529 20.7744 69.6907 20.7492C69.8774 20.7424 70.0636 20.7256 70.2485 20.6988V22.3281C69.8321 22.4717 69.3933 22.5387 68.9532 22.5257C67.4051 22.5257 66.6947 22.0569 66.2142 20.7009C64.6911 22.1073 63.1179 22.7002 60.8594 22.7002C57.8404 22.7002 55.9872 21.3189 55.9872 19.0737C55.9807 18.4468 56.1577 17.8318 56.4962 17.3054C56.8346 16.779 57.3196 16.3645 57.8906 16.1136C58.8036 15.7184 59.353 15.5964 61.9772 15.3231C64.2106 15.1003 64.5908 15.0519 65.226 14.8543C65.9112 14.6315 66.2163 14.2636 66.2163 13.6455C66.2163 12.3379 65.1257 11.7534 62.84 11.7534C60.6797 11.7534 59.5682 12.1739 59.1211 13.2839C59.0144 13.5597 58.8275 13.7967 58.5849 13.964C58.3423 14.1312 58.0551 14.221 57.761 14.2215L56.4385 14.2047ZM66.21 16.2818C64.6422 16.7408 63.0322 17.0388 61.4047 17.1711C59.1963 17.3939 58.5111 17.8018 58.5111 18.9223C58.5111 20.1564 59.5265 20.7976 61.5301 20.7976C63.1806 20.7976 64.4237 20.3771 65.3116 19.5635C66.022 18.8971 66.1996 18.4283 66.1996 17.2678L66.21 16.2818ZM76.2029 22.3449H75.5762C75.3023 22.3456 75.0337 22.269 74.801 22.1236C74.5683 21.9783 74.3808 21.7701 74.2599 21.5229L68.9281 10.1851H70.4073C70.8289 10.1818 71.2423 10.3019 71.5972 10.5307C71.9522 10.7595 72.2334 11.0871 72.4067 11.4738L75.9585 19.635L79.6251 11.4465C79.8018 11.0662 80.0835 10.7451 80.4365 10.5215C80.7896 10.2978 81.199 10.1811 81.6162 10.1851H82.9596L77.5129 21.5376C77.3904 21.7812 77.2031 21.9857 76.9717 22.1282C76.7404 22.2708 76.4742 22.3458 76.2029 22.3449ZM84.6289 16.9672C84.8817 19.3112 86.7182 20.766 89.4342 20.766C90.9761 20.766 92.1252 20.3056 92.8502 19.3827C93.0559 19.1209 93.3178 18.9092 93.6162 18.7636C93.9147 18.6179 94.2421 18.5421 94.5738 18.5418H96.0049C94.7514 21.3063 92.5284 22.6623 89.2044 22.6623C85.0426 22.6623 82.2513 20.1206 82.2513 16.3217C82.2513 12.5229 85.1199 9.85713 89.2566 9.85713C92.2505 9.85713 94.6615 11.2131 95.6268 13.4836C96.0572 14.5201 96.2368 15.4577 96.2368 16.9608L84.6289 16.9672ZM93.713 15.0919C93.1552 12.9454 91.5047 11.7282 89.2211 11.7282C86.9375 11.7282 85.287 12.937 84.7041 15.0919H93.713Z" fill="white"/>
<path d="M26.255 9.70428L25.3357 7.19201L25.975 5.74982C26.0152 5.65884 26.0271 5.55778 26.0092 5.45987C25.9913 5.36195 25.9445 5.27176 25.8747 5.20112L24.1365 3.43308C23.7633 3.05207 23.2903 2.78557 22.7725 2.66461C22.2546 2.54365 21.7133 2.5732 21.2115 2.74983L20.7247 2.92011L18.0693 0.0252267L13.5648 0H13.5356L9.00188 0.0357389L6.34852 2.95375L5.87635 2.78556C5.3713 2.60685 4.82608 2.5768 4.30466 2.69894C3.78324 2.82107 3.30726 3.09034 2.93258 3.47512L1.16297 5.2768C1.10744 5.33312 1.07013 5.40502 1.05596 5.48307C1.04179 5.56111 1.05142 5.64165 1.08358 5.71408L1.75006 7.21093L0.834961 9.72109L1.42622 11.9853L4.12346 22.3034C4.43419 23.492 5.14906 24.5335 6.14377 25.2467C6.14377 25.2467 9.41764 27.5697 12.6476 29.6805C12.9031 29.8857 13.2202 29.9974 13.5471 29.9974C13.8739 29.9974 14.1911 29.8857 14.4465 29.6805C18.0755 27.288 20.9462 25.2383 20.9462 25.2383C21.9401 24.5247 22.6542 23.4833 22.9644 22.295L25.647 11.9727L26.255 9.70428Z" fill="white"/>
<path d="M14.286 18.5958C14.114 18.5183 13.9367 18.4537 13.7553 18.4023H13.4356C13.2543 18.4537 13.0769 18.5183 12.905 18.5958L12.1006 18.9321C11.8457 19.0393 11.4362 19.2307 11.1918 19.3526L9.71259 20.1283C9.65902 20.1458 9.61188 20.1791 9.57724 20.2237C9.5426 20.2684 9.52205 20.3225 9.51823 20.379C9.51441 20.4356 9.5275 20.492 9.5558 20.541C9.58411 20.59 9.62635 20.6293 9.67707 20.6539L10.962 21.5663C11.1876 21.7261 11.5428 22.0078 11.7517 22.197L12.1131 22.5103C12.3221 22.6911 12.6626 22.9917 12.8695 23.1767L13.2121 23.4815C13.318 23.5703 13.4514 23.6189 13.5892 23.6189C13.727 23.6189 13.8604 23.5703 13.9663 23.4815L14.3257 23.1662L15.082 22.5019L15.4455 22.1823C15.6544 21.9994 16.0075 21.7177 16.2332 21.5516L17.5181 20.6266C17.5689 20.602 17.6112 20.5626 17.6394 20.5135C17.6675 20.4643 17.6803 20.4078 17.676 20.3512C17.6718 20.2946 17.6506 20.2407 17.6153 20.1964C17.58 20.1521 17.5323 20.1196 17.4784 20.1031L16.0013 19.3484C15.7547 19.2222 15.3452 19.033 15.0883 18.9279L14.286 18.5958Z" fill="black"/>
<path d="M23.3926 10.2651L23.4344 10.1306C23.4369 9.9506 23.4257 9.77068 23.401 9.59239C23.2766 9.27394 23.1168 8.97068 22.9246 8.6884L22.0889 7.45434C21.9343 7.22309 21.6711 6.85729 21.4935 6.64075L20.3737 5.23009C20.2715 5.09261 20.1605 4.96199 20.0415 4.83907H20.0185C20.0185 4.83907 19.7928 4.87901 19.5212 4.93157L17.8101 5.26373L17.0601 5.40879C16.8111 5.42057 16.5621 5.38417 16.3268 5.30158L14.975 4.86219C14.7118 4.776 14.2772 4.65196 14.0077 4.59309C13.7236 4.56272 13.4372 4.56272 13.1532 4.59309C12.8837 4.65616 12.4491 4.7781 12.1858 4.86429L10.8341 5.30578C10.5987 5.38837 10.3498 5.42477 10.1008 5.413L9.35072 5.27004L7.63752 4.93998C7.36592 4.88742 7.14237 4.84537 7.14028 4.84748H7.1173C6.99822 4.9704 6.88725 5.10102 6.7851 5.23851L5.66735 6.64916C5.49603 6.85939 5.22652 7.2336 5.07191 7.46275L4.23621 8.69681C4.09187 8.90962 3.96003 9.13074 3.84134 9.35904C3.76974 9.61361 3.73181 9.87655 3.72852 10.1411L3.7703 10.2756C3.79042 10.3621 3.81624 10.4471 3.84761 10.53C4.02101 10.7403 4.31769 11.0892 4.50781 11.2932L7.43277 14.4214C7.52988 14.5355 7.59485 14.6736 7.62094 14.8215C7.64702 14.9694 7.63327 15.1216 7.58111 15.2623L7.10267 16.4039C6.99388 16.7063 6.98582 17.0362 7.07969 17.3436L7.1758 17.6085C7.33283 18.0387 7.602 18.4185 7.95509 18.708L8.41473 19.0843C8.53413 19.171 8.67346 19.2257 8.81963 19.2434C8.96581 19.261 9.11404 19.241 9.25043 19.1852L10.8842 18.4011C11.1841 18.25 11.4647 18.0629 11.7199 17.844L13.0278 16.6562C13.0799 16.6088 13.122 16.5515 13.1517 16.4875C13.1814 16.4235 13.1979 16.3541 13.2005 16.2835C13.203 16.213 13.1914 16.1426 13.1664 16.0766C13.1414 16.0106 13.1035 15.9503 13.055 15.8993L10.1029 13.8979C9.99107 13.8181 9.91146 13.7006 9.87849 13.5667C9.84552 13.4329 9.86138 13.2915 9.92317 13.1684L11.0681 11.003C11.1332 10.8705 11.1717 10.7263 11.1814 10.5788C11.1911 10.4312 11.1717 10.2832 11.1245 10.1432C10.9823 9.87611 10.7528 9.66667 10.4747 9.55035L6.88539 8.18595C6.62632 8.08714 6.64094 7.97572 6.91464 7.9589L9.0227 7.74867C9.35327 7.72752 9.68511 7.75729 10.0067 7.83696L11.8411 8.35203C11.9713 8.39153 12.0829 8.47721 12.1552 8.59319C12.2274 8.70917 12.2554 8.84757 12.2339 8.98272L11.5131 12.9435C11.4649 13.1629 11.4529 13.3887 11.4776 13.612C11.5068 13.7066 11.7534 13.8222 12.0229 13.8895L13.1406 14.1292C13.4652 14.1892 13.798 14.1892 14.1226 14.1292L15.1275 13.9C15.397 13.8391 15.6415 13.7108 15.6728 13.6162C15.6969 13.3928 15.6842 13.1669 15.6352 12.9477L14.9102 8.98693C14.8888 8.85178 14.9168 8.71338 14.989 8.5974C15.0612 8.48142 15.1728 8.39574 15.303 8.35624L17.1374 7.83907C17.459 7.75936 17.7909 7.72958 18.1214 7.75077L20.2295 7.94839C20.5053 7.97361 20.5178 8.07663 20.2608 8.17544L16.6736 9.54404C16.3955 9.66036 16.166 9.8698 16.0238 10.1369C15.9287 10.4197 15.949 10.729 16.0802 10.9967L17.2272 13.1621C17.289 13.2852 17.3049 13.4266 17.2719 13.5604C17.2389 13.6943 17.1593 13.8118 17.0476 13.8916L14.0975 15.8972C14.0489 15.9482 14.011 16.0085 13.9861 16.0745C13.9611 16.1405 13.9495 16.2109 13.952 16.2814C13.9546 16.352 13.9711 16.4214 14.0008 16.4854C14.0305 16.5494 14.0726 16.6067 14.1247 16.6541L15.4346 17.8419C15.6899 18.0601 15.9706 18.2465 16.2703 18.3969L17.9041 19.1789C18.0407 19.2344 18.189 19.2541 18.3352 19.2361C18.4814 19.218 18.6206 19.1629 18.7399 19.0759L19.1995 18.6975C19.553 18.4075 19.8222 18.0269 19.9788 17.5959L20.0749 17.331C20.1688 17.0236 20.1607 16.6937 20.0519 16.3913L19.5714 15.2497C19.5192 15.109 19.5055 14.9568 19.5316 14.8089C19.5576 14.661 19.6226 14.5229 19.7197 14.4088L22.6447 11.2763C22.8348 11.0661 23.1294 10.7297 23.3028 10.5132C23.3382 10.4326 23.3682 10.3497 23.3926 10.2651Z" fill="black"/>
<path d="M97.3618 10.3391C97.3672 10.5445 97.3116 10.7468 97.202 10.9202C97.0925 11.0936 96.934 11.2302 96.7468 11.3124C96.5597 11.3946 96.3524 11.4188 96.1515 11.3817C95.9506 11.3447 95.7653 11.2482 95.6193 11.1045C95.4733 10.9609 95.3732 10.7767 95.3318 10.5755C95.2904 10.3742 95.3097 10.1652 95.3871 9.97502C95.4646 9.78488 95.5966 9.62232 95.7664 9.50815C95.9362 9.39398 96.136 9.3334 96.3402 9.33416C96.4731 9.33165 96.6052 9.35576 96.7288 9.40508C96.8523 9.45441 96.9649 9.52797 97.06 9.62148C97.1551 9.71498 97.2307 9.82658 97.2825 9.94977C97.3343 10.073 97.3613 10.2053 97.3618 10.3391ZM95.5672 10.3391C95.5638 10.4439 95.5815 10.5482 95.6192 10.646C95.6569 10.7437 95.7139 10.8327 95.7867 10.9078C95.8595 10.9828 95.9466 11.0422 96.0428 11.0825C96.139 11.1228 96.2423 11.1431 96.3465 11.1421C96.4489 11.1417 96.5501 11.1205 96.6442 11.0798C96.7383 11.0392 96.8233 10.98 96.8943 10.9057C96.9652 10.8314 97.0206 10.7435 97.0571 10.6472C97.0936 10.551 97.1106 10.4483 97.107 10.3454C97.1124 10.2402 97.0965 10.1351 97.0603 10.0363C97.024 9.93758 96.9682 9.84728 96.8962 9.77093C96.8242 9.69458 96.7375 9.63377 96.6413 9.59223C96.5452 9.55068 96.4417 9.52925 96.3371 9.52925C96.2324 9.52925 96.1289 9.55068 96.0328 9.59223C95.9367 9.63377 95.8499 9.69458 95.7779 9.77093C95.7059 9.84728 95.6501 9.93758 95.6138 10.0363C95.5776 10.1351 95.5617 10.2402 95.5672 10.3454V10.3391ZM96.1814 10.8667H95.9495V9.86184C96.0763 9.83898 96.2051 9.82842 96.3339 9.83031C96.4542 9.82075 96.5746 9.84629 96.6807 9.90389C96.7107 9.93 96.7348 9.96227 96.7514 9.99853C96.768 10.0348 96.7767 10.0742 96.7768 10.1141C96.7723 10.1707 96.7494 10.2242 96.7116 10.2664C96.6739 10.3085 96.6234 10.337 96.5679 10.3475V10.3601C96.6173 10.3804 96.6603 10.4138 96.6923 10.4567C96.7244 10.4997 96.7442 10.5506 96.7497 10.604C96.7595 10.691 96.7843 10.7756 96.8228 10.8541H96.5721C96.5338 10.7772 96.5071 10.695 96.4927 10.6103C96.4739 10.5009 96.4133 10.4505 96.2838 10.4505H96.1751L96.1814 10.8667ZM96.1814 10.297H96.29C96.4175 10.297 96.522 10.255 96.522 10.1499C96.522 10.0447 96.4551 9.99639 96.313 9.99639C96.2702 9.99552 96.2274 9.99976 96.1856 10.009L96.1814 10.297Z" fill="#515D6C"/>
</g>
<defs>
<clipPath id="clip0_7032_6856">
<rect width="96.5217" height="30" fill="white" transform="translate(0.840332)"/>
</clipPath>
</defs>
</svg>
