<svg width="81" height="30" viewBox="0 0 81 30" fill="none" xmlns="http://www.w3.org/2000/svg">
<g clip-path="url(#clip0_7032_6855)">
<path d="M69.2308 27.3086V29.0815H80.8502V21.0854H79.1571V27.3086H69.2308ZM69.2308 0.919922V2.69291H79.1571V8.91645H80.8502V0.919922H69.2308ZM63.2387 14.636V10.5161H65.8946C67.1896 10.5161 67.6543 10.968 67.6543 12.2024V12.9324C67.6543 14.2013 67.206 14.636 65.8946 14.636H63.2387ZM67.4547 15.3659C68.6663 15.0357 69.5127 13.8534 69.5127 12.4456C69.5127 11.5591 69.181 10.7593 68.5503 10.116C67.7535 9.31615 66.6908 8.91645 65.3133 8.91645H61.5786V21.085H63.2387V16.2352H65.7286C67.0066 16.2352 67.5213 16.7914 67.5213 18.1824V21.0854H69.2144V18.4605C69.2144 16.5482 68.7829 15.8182 67.4547 15.6096V15.3659ZM53.4785 15.7656H58.5912V14.1664H53.4785V10.5157H59.0891V8.91645H51.7852V21.085H59.338V19.4858H53.4785V15.7656ZM47.9175 16.4089V17.2433C47.9175 18.999 47.3032 19.5729 45.7597 19.5729H45.3946C43.8507 19.5729 43.1038 19.0512 43.1038 16.6349V13.3666C43.1038 10.9331 43.8841 10.4286 45.4276 10.4286H45.7593C47.27 10.4286 47.7514 11.0197 47.7677 12.6539H49.5938C49.4278 10.2548 47.9007 8.7427 45.6099 8.7427C44.498 8.7427 43.5683 9.10789 42.8713 9.80296C41.8255 10.8287 41.2446 12.5672 41.2446 15.0008C41.2446 17.3476 41.7427 19.0861 42.7717 20.1636C43.4687 20.8763 44.4316 21.2588 45.3778 21.2588C46.3736 21.2588 47.2868 20.8414 47.7514 19.9377H47.9835V21.085H49.5106V14.8097H45.0122V16.4089H47.9175ZM33.2775 10.5157H35.0869C36.7968 10.5157 37.7265 10.9675 37.7265 13.4015V16.6C37.7265 19.0335 36.7968 19.4858 35.0869 19.4858H33.2775V10.5157ZM35.2361 21.0854C38.4067 21.0854 39.5849 18.5648 39.5849 15.0012C39.5849 11.3853 38.3235 8.91687 35.2027 8.91687H31.6172V21.0854H35.2361ZM23.6003 15.7656H28.7129V14.1664H23.6003V10.5157H29.2106V8.91645H21.9068V21.085H29.4598V19.4858H23.6003V15.7656ZM13.8068 8.91645H12.1138V21.085H19.7494V19.4858H13.8068V8.91645ZM0.477539 21.0854V29.082H12.0969V27.3086H2.17051V21.0854H0.477539ZM0.477539 0.919922V8.91645H2.17051V2.69291H12.0969V0.919922H0.477539Z" fill="white"/>
</g>
<defs>
<clipPath id="clip0_7032_6855">
<rect width="80.463" height="28.1621" fill="white" transform="translate(0.477539 0.919922)"/>
</clipPath>
</defs>
</svg>
