<svg width="153" height="38" viewBox="0 0 153 38" fill="none" xmlns="http://www.w3.org/2000/svg">
<g clip-path="url(#clip0_7035_26187)">
<path d="M26.6328 6L15.6992 14.1335L17.7326 9.3334L26.6328 6Z" fill="#CCCCCC"/>
<path d="M1.36523 6L12.2321 14.2002L10.2988 9.3334L1.36523 6Z" fill="#CCCCCC"/>
<path d="M22.699 24.834L19.7656 29.3007L26.0324 31.0341L27.7991 24.934L22.699 24.834Z" fill="#CCCCCC"/>
<path d="M0.23291 24.9355L1.99961 31.0357L8.23307 29.3023L5.33433 24.9356L0.23291 24.9355Z" fill="#CCCCCC"/>
<path d="M7.89792 17.3019L6.16455 19.9353L12.3313 20.202L12.1313 13.5352L7.89792 17.3019Z" fill="#999999"/>
<path d="M20.1326 17.3002L15.8326 13.4668L15.6992 20.2003L21.866 19.9336L20.1326 17.3002Z" fill="#999999"/>
<path d="M8.23242 29.3002L11.9658 27.5002L8.73243 24.9668L8.23242 29.3002Z" fill="#999999"/>
<path d="M16.0659 27.5002L19.766 29.3002L19.266 24.9668L16.0659 27.5002Z" fill="#999999"/>
<path d="M19.7675 29.302L16.0674 27.502L16.3674 29.902L16.3341 30.9354L19.7675 29.302Z" fill="#666666"/>
<path d="M8.2334 29.302L11.7001 30.9354L11.6668 29.902L11.9668 27.502L8.2334 29.302Z" fill="#666666"/>
<path opacity="0.2" d="M11.7661 23.3688L8.66602 22.4688L10.8327 21.4688L11.7661 23.3688Z" fill="#333333"/>
<path opacity="0.2" d="M16.2661 23.3688L17.1661 21.4688L19.3662 22.4688L16.2661 23.3688Z" fill="#333333"/>
<path d="M8.23307 29.3007L8.76641 24.834L5.33301 24.934L8.23307 29.3007Z" fill="#B2B2B2"/>
<path d="M19.2661 24.834L19.7661 29.3007L22.6995 24.934L19.2661 24.834Z" fill="#B2B2B2"/>
<path d="M21.8665 19.9336L15.6997 20.2003L16.2664 23.367L17.1664 21.467L19.3664 22.467L21.8665 19.9336Z" fill="#666666"/>
<path d="M8.66509 22.467L10.8318 21.467L11.7652 23.367L12.3318 20.2003L6.16504 19.9336L8.66509 22.467Z" fill="#666666"/>
<path d="M6.16455 19.9336L8.73127 24.967L8.6646 22.467L6.16455 19.9336Z" fill="#CCCCCC"/>
<path d="M19.3656 22.467L19.2656 24.967L21.8657 19.9336L19.3656 22.467Z" fill="#CCCCCC"/>
<path d="M12.3323 20.2012L11.7656 23.3679L12.4656 27.1346L12.6323 22.1679L12.3323 20.2012Z" fill="#CCCCCC"/>
<path d="M15.6994 20.2012L15.3994 22.1679L15.5328 27.1346L16.2661 23.3679L15.6994 20.2012Z" fill="#CCCCCC"/>
<path d="M16.2666 23.3688L15.5332 27.1355L16.0665 27.5022L19.2666 24.9688L19.3666 22.4688L16.2666 23.3688Z" fill="white"/>
<path d="M8.66602 22.4688L8.73268 24.9688L11.9661 27.5022L12.4661 27.1355L11.7661 23.3688L8.66602 22.4688Z" fill="white"/>
<path d="M16.3331 30.9341L16.3664 29.9008L16.0664 29.6675H11.933L11.6663 29.9008L11.6996 30.9341L8.23291 29.3008L9.43293 30.3008L11.8997 32.0008H16.0997L18.5665 30.3008L19.7665 29.3008L16.3331 30.9341Z" fill="#4D4D4D"/>
<path d="M16.0661 27.4995L15.5328 27.1328H12.466L11.966 27.4995L11.666 29.8995L11.9327 29.6662H16.0661L16.3661 29.8995L16.0661 27.4995Z" fill="#333333"/>
<path d="M27.1005 14.6668L28.0338 10.1668L26.6338 6L16.0669 13.8668L20.1336 17.3002L25.8671 18.9669L27.1338 17.5002L26.6004 17.1002L27.4671 16.3002L26.8004 15.7669L27.6671 15.1002L27.1005 14.6668Z" fill="#666666"/>
<path d="M0 10.1668L0.933351 14.6668L0.33334 15.1002L1.20002 15.7669L0.533344 16.3002L1.43336 17.1002L0.866684 17.5002L2.13338 18.9669L7.90016 17.3002L11.9669 13.8668L1.36669 6L0 10.1668Z" fill="#666666"/>
<path d="M25.8658 18.9694L20.1323 17.3027L21.8657 19.9361L19.2656 24.9696L22.699 24.9362H27.7991L25.8658 18.9694Z" fill="white"/>
<path d="M7.89973 17.3027L2.13295 18.9694L0.23291 24.9362H5.33302L8.73308 24.9696L6.16637 19.9361L7.89973 17.3027Z" fill="white"/>
<path d="M15.6985 20.2009L16.0651 13.8674L17.7318 9.33398H10.2983L11.965 13.8674L12.3317 20.2009L12.4651 22.2009V27.1343H15.5318V22.2009L15.6985 20.2009Z" fill="white"/>
<path d="M134.106 19.105C133.297 18.5778 132.416 18.196 131.579 17.7232C131.034 17.4232 130.452 17.1505 129.979 16.7596C129.179 16.105 129.343 14.805 130.179 14.2414C131.388 13.4414 133.379 13.8869 133.597 15.5232C133.597 15.5596 133.634 15.5869 133.67 15.5869H135.488C135.534 15.5869 135.57 15.5505 135.552 15.496C135.536 14.9812 135.409 14.476 135.18 14.0148C134.951 13.5535 134.625 13.1471 134.225 12.8232C133.485 12.2526 132.577 11.9426 131.643 11.9414C126.843 11.9414 126.397 17.0232 128.988 18.6232C129.288 18.805 131.825 20.0778 132.716 20.6323C133.625 21.1869 133.897 22.205 133.516 22.996C133.152 23.7323 132.243 24.2414 131.316 24.1778C130.316 24.1232 129.534 23.5778 129.261 22.7323C129.216 22.5778 129.188 22.2778 129.188 22.1596C129.186 22.141 129.178 22.1236 129.165 22.1104C129.151 22.0971 129.134 22.0888 129.116 22.0869H127.143C127.116 22.0869 127.079 22.1232 127.079 22.1596C127.079 23.5778 127.434 24.3687 128.397 25.0869C129.306 25.7687 130.306 26.0596 131.325 26.0596C134.025 26.0596 135.416 24.5323 135.688 22.9596C135.943 21.4141 135.488 20.0232 134.106 19.105ZM48.4701 12.205H46.6337C46.6201 12.2067 46.6072 12.2117 46.5961 12.2197C46.585 12.2276 46.576 12.2382 46.5701 12.2505L44.9519 17.5778C44.9519 17.5971 44.9442 17.6156 44.9306 17.6292C44.9169 17.6428 44.8984 17.6505 44.8791 17.6505C44.8599 17.6505 44.8414 17.6428 44.8277 17.6292C44.8141 17.6156 44.8064 17.5971 44.8064 17.5778L43.1882 12.2505C43.1791 12.2141 43.1519 12.205 43.1155 12.205H40.1064C40.0701 12.205 40.0337 12.2414 40.0337 12.2687V25.8687C40.0337 25.905 40.0701 25.9414 40.1064 25.9414H42.0791C42.1155 25.9414 42.1519 25.905 42.1519 25.8687V15.5232C42.1519 15.4414 42.2701 15.4323 42.2882 15.505L43.9246 20.8687L44.0428 21.2323C44.0428 21.2778 44.0701 21.2869 44.1064 21.2869H45.6246C45.661 21.2869 45.6791 21.2596 45.6882 21.2414L45.8064 20.8596L47.4428 15.496C47.461 15.4232 47.5791 15.4414 47.5791 15.5232V25.8596C47.5791 25.896 47.6155 25.9323 47.6519 25.9323H49.6246C49.661 25.9323 49.6973 25.896 49.6973 25.8596V12.2687C49.6973 12.2414 49.661 12.205 49.6246 12.205H48.4701ZM103.906 12.205C103.891 12.2051 103.876 12.2095 103.864 12.2175C103.851 12.2255 103.84 12.2369 103.834 12.2505L102.216 17.5778C102.216 17.5971 102.208 17.6156 102.194 17.6292C102.181 17.6428 102.162 17.6505 102.143 17.6505C102.123 17.6505 102.105 17.6428 102.091 17.6292C102.078 17.6156 102.07 17.5971 102.07 17.5778L100.452 12.2505C100.452 12.2141 100.425 12.205 100.388 12.205H97.3882C97.3519 12.205 97.3155 12.2414 97.3155 12.2687V25.8687C97.3155 25.905 97.3519 25.9414 97.3882 25.9414H99.361C99.3882 25.9414 99.4246 25.905 99.4246 25.8687V15.5232C99.4246 15.4414 99.5428 15.4323 99.5701 15.505L101.206 20.8687L101.316 21.2323C101.334 21.2778 101.352 21.2869 101.388 21.2869H102.897C102.912 21.2859 102.927 21.2812 102.939 21.2732C102.952 21.2653 102.963 21.2544 102.97 21.2414L103.088 20.8596L104.725 15.496C104.743 15.4232 104.861 15.4414 104.861 15.5232V25.8596C104.861 25.896 104.897 25.9323 104.934 25.9323H106.906C106.943 25.9323 106.979 25.896 106.979 25.8596V12.2687C106.979 12.2414 106.943 12.205 106.906 12.205H103.906ZM78.461 12.205H69.1428C69.1155 12.205 69.0792 12.2414 69.0792 12.2687V13.9778C69.0792 14.0141 69.1155 14.0505 69.1428 14.0505H72.7519V25.8687C72.7519 25.9141 72.7882 25.9505 72.8155 25.9505H74.7882C74.8246 25.9505 74.861 25.9141 74.861 25.8778V14.0414H78.461C78.4973 14.0414 78.5337 14.005 78.5337 13.9687V12.2687C78.5337 12.2414 78.5155 12.205 78.461 12.205ZM90.0973 25.9414H91.8973C91.9428 25.9414 91.9791 25.8869 91.961 25.8505L88.2519 12.205C88.2519 12.1687 88.2246 12.1505 88.1882 12.1505H85.5973C85.5828 12.153 85.5692 12.1594 85.558 12.169C85.5468 12.1786 85.5384 12.1911 85.5337 12.205L81.8246 25.8414C81.8064 25.8869 81.8428 25.9323 81.8882 25.9323H83.6882C83.7246 25.9323 83.7428 25.9141 83.761 25.8869L84.8337 21.9232C84.8428 21.8869 84.8701 21.8778 84.9064 21.8778H88.8701C88.9064 21.8778 88.9337 21.896 88.9428 21.9232L90.0155 25.8869C90.0337 25.9141 90.0701 25.9414 90.0882 25.9414H90.0973ZM85.3882 19.9323L86.8246 14.6141C86.8246 14.5948 86.8323 14.5763 86.8459 14.5627C86.8595 14.5491 86.878 14.5414 86.8973 14.5414C86.9166 14.5414 86.9351 14.5491 86.9488 14.5627C86.9624 14.5763 86.9701 14.5948 86.9701 14.6141L88.4064 19.9323C88.4246 19.9778 88.3882 20.0232 88.3428 20.0232H85.461C85.4064 20.0232 85.3701 19.9778 85.3882 19.9323ZM120.706 25.9414H122.506C122.552 25.9414 122.588 25.8869 122.579 25.8505L118.87 12.196C118.852 12.1596 118.834 12.1414 118.797 12.1414H116.225C116.208 12.1423 116.193 12.1479 116.18 12.1576C116.167 12.1674 116.157 12.1807 116.152 12.196L112.443 25.8323C112.434 25.8778 112.47 25.9232 112.516 25.9232H114.306C114.343 25.9232 114.37 25.905 114.379 25.8778L115.452 21.9141C115.47 21.8778 115.488 21.8687 115.525 21.8687H119.497C119.525 21.8687 119.552 21.8869 119.561 21.9141L120.643 25.8778C120.643 25.905 120.679 25.9323 120.706 25.9323V25.9414ZM115.997 19.9323L117.443 14.6141C117.448 14.6002 117.457 14.5882 117.469 14.5797C117.482 14.5713 117.496 14.5667 117.511 14.5667C117.526 14.5667 117.54 14.5713 117.552 14.5797C117.565 14.5882 117.574 14.6002 117.579 14.6141L119.025 19.9323C119.025 19.9778 118.997 20.0232 118.952 20.0232H116.07C116.025 20.0232 115.979 19.9778 115.997 19.9323ZM57.7064 23.9232V19.705C57.7064 19.6687 57.7337 19.6323 57.7701 19.6323H63.0246C63.061 19.6323 63.0973 19.596 63.0973 19.5687V17.8687C63.0954 17.8501 63.0871 17.8327 63.0738 17.8195C63.0606 17.8062 63.0432 17.7979 63.0246 17.796H57.7792C57.7428 17.796 57.7155 17.7596 57.7155 17.7232V14.1232C57.7155 14.0869 57.7428 14.0505 57.7792 14.0505H63.761C63.7973 14.0505 63.8337 14.0141 63.8337 13.9778V12.2869C63.8317 12.2682 63.8234 12.2509 63.8102 12.2376C63.797 12.2244 63.7796 12.2161 63.761 12.2141H55.6701C55.6514 12.2161 55.6341 12.2244 55.6208 12.2376C55.6076 12.2509 55.5993 12.2682 55.5973 12.2869V25.8687C55.5973 25.905 55.6337 25.9414 55.6701 25.9414H64.0064C64.0428 25.9414 64.0792 25.905 64.0792 25.8687V24.0687C64.0772 24.0501 64.0689 24.0327 64.0556 24.0195C64.0424 24.0062 64.025 23.9979 64.0064 23.996H57.7701C57.7337 23.9869 57.7155 23.9596 57.7155 23.9141L57.7064 23.9232ZM152.125 25.8232L145.306 18.7869C145.296 18.774 145.29 18.7579 145.29 18.7414C145.29 18.7249 145.296 18.7089 145.306 18.696L151.443 12.3323C151.458 12.3251 151.471 12.3119 151.477 12.2957C151.483 12.2795 151.482 12.2616 151.475 12.246C151.467 12.2303 151.454 12.2181 151.438 12.2122C151.422 12.2062 151.404 12.2069 151.388 12.2141H148.879C148.852 12.2141 148.843 12.2232 148.834 12.2414L143.625 17.6323C143.615 17.6405 143.603 17.6459 143.59 17.648C143.577 17.65 143.564 17.6487 143.552 17.6441C143.54 17.6394 143.53 17.6317 143.522 17.6217C143.514 17.6116 143.508 17.5996 143.506 17.5869V12.2869C143.504 12.2682 143.496 12.2509 143.483 12.2376C143.47 12.2244 143.452 12.2161 143.434 12.2141H141.461C141.442 12.2161 141.425 12.2244 141.412 12.2376C141.399 12.2509 141.39 12.2682 141.388 12.2869V25.8778C141.388 25.9141 141.425 25.9505 141.461 25.9505H143.434C143.47 25.9505 143.506 25.9141 143.506 25.8778V19.896C143.506 19.8323 143.588 19.805 143.625 19.8505L149.534 25.9232C149.543 25.9352 149.556 25.9446 149.57 25.9505H152.088C152.134 25.9414 152.179 25.8596 152.125 25.8232Z" fill="white"/>
</g>
<defs>
<clipPath id="clip0_7035_26187">
<rect width="152.149" height="38.0015" fill="white"/>
</clipPath>
</defs>
</svg>
