<svg width="130" height="30" viewBox="0 0 130 30" fill="none" xmlns="http://www.w3.org/2000/svg">
<g clip-path="url(#clip0_7032_6852)">
<mask id="mask0_7032_6852" style="mask-type:luminance" maskUnits="userSpaceOnUse" x="0" y="3" width="130" height="23">
<path d="M129.017 3.87891H0.94873V25.6778H129.017V3.87891Z" fill="white"/>
</mask>
<g mask="url(#mask0_7032_6852)">
<path d="M47.7944 10.632C50.0786 10.632 51.9441 12.4962 51.9441 14.7787C51.9441 17.0614 50.0786 18.9255 47.7944 18.9255C45.5102 18.9255 43.6447 17.0614 43.6447 14.7787C43.6447 12.4962 45.4911 10.632 47.7944 10.632ZM47.7944 8.63477C44.4061 8.63477 41.646 11.3929 41.646 14.7787C41.646 18.1647 44.4061 20.9228 47.7944 20.9228C51.1827 20.9228 53.9428 18.1647 53.9428 14.7787C53.9428 11.3739 51.1827 8.63477 47.7944 8.63477Z" fill="white"/>
<path d="M107.356 10.632C109.64 10.632 111.506 12.4962 111.506 14.7787C111.506 17.0614 109.64 18.9255 107.356 18.9255C105.071 18.9255 103.206 17.0614 103.206 14.7787C103.206 12.4962 105.071 10.632 107.356 10.632ZM107.356 8.63477C103.968 8.63477 101.208 11.3929 101.208 14.7787C101.208 18.1647 103.968 20.9228 107.356 20.9228C110.744 20.9228 113.504 18.1647 113.504 14.7787C113.504 11.3739 110.763 8.63477 107.356 8.63477Z" fill="white"/>
<path d="M98.0845 16.2054C97.495 17.8033 95.9718 18.9255 94.1825 18.9255C91.8981 18.9255 90.0329 17.0614 90.0329 14.7787C90.0329 12.4962 91.8981 10.632 94.1825 10.632C95.9718 10.632 97.495 11.7734 98.0845 13.3522H100.16C99.5314 10.6511 97.0953 8.63477 94.1825 8.63477C90.7943 8.63477 88.0342 11.3929 88.0342 14.7787C88.0342 18.1647 90.7943 20.9228 94.1825 20.9228C97.0953 20.9228 99.5314 18.9065 100.16 16.2054H98.0845Z" fill="white"/>
<path d="M80.8396 10.8215C83.0666 10.8215 84.875 12.6856 84.7988 14.9302C84.7227 17.0796 82.8953 18.7345 80.7444 18.7345H78.5553V10.8215H80.8396ZM80.8396 8.82422H76.5566V20.7318H80.8396C84.1327 20.7318 86.7976 18.0687 86.7976 14.778C86.7976 11.4873 84.1327 8.82422 80.8396 8.82422Z" fill="white"/>
<path d="M116.968 8.84375H114.969V20.7133H116.968V8.84375Z" fill="white"/>
<path d="M30.9864 20.7708L33.2516 12.0398L35.5168 20.7708H38.2578L41.3605 8.78711H39.3048L36.8873 18.0888L34.4698 8.78711H32.0333L29.6159 18.0888L27.1984 8.78711H25.1426L28.2453 20.7708H30.9864Z" fill="white"/>
<path d="M120.966 12.2672L127.018 20.7128H127.247H129.017V8.84325H127.018V17.2889L120.966 8.82422H120.813L120.794 8.84325H118.967V20.7128H120.966V12.2672Z" fill="white"/>
<path d="M68.7521 8.84375H66.7534V20.7133H75.0909V18.716H68.7521V8.84375Z" fill="white"/>
<path d="M62.908 15.8252C64.1263 15.2166 64.9638 13.9801 64.9638 12.5345C64.9638 10.4991 63.3078 8.86328 61.2901 8.86328H57.5212H55.4653V16.2247V20.7329H57.5212V16.2057H58.6632C61.0997 16.2818 63.0414 18.26 63.0414 20.7138H65.0971C65.1162 18.7736 64.2596 17.0236 62.908 15.8252ZM57.5212 14.1513V10.8986H61.2901C62.1848 10.8986 62.908 11.6214 62.908 12.5154C62.908 13.4095 62.1848 14.1513 61.2901 14.1513H57.5212Z" fill="white"/>
<path d="M21.8874 10.5365C21.3354 9.24303 20.5549 8.08271 19.5461 7.07455C18.5372 6.06641 17.3951 5.28652 16.1007 4.73488C14.7492 4.16423 13.3216 3.87891 11.8559 3.87891C10.3711 3.87891 8.94349 4.16423 7.61104 4.73488C6.31664 5.28652 5.1555 6.06641 4.14664 7.07455C3.13778 8.08271 2.35733 9.24303 1.80531 10.5365C1.23426 11.868 0.94873 13.2947 0.94873 14.7784C0.94873 16.2431 1.23426 17.6696 1.80531 19.0202C2.35733 20.3136 3.13778 21.474 4.14664 22.4822C5.1555 23.4903 6.31664 24.2702 7.61104 24.8028C8.96253 25.3734 10.3902 25.6588 11.8559 25.6588C13.3216 25.6588 14.7492 25.3734 16.1007 24.8028C17.3951 24.2512 18.5562 23.4713 19.5651 22.4631C20.574 21.455 21.3544 20.2947 21.9065 19.0012C22.4775 17.6506 22.763 16.224 22.763 14.7594C22.763 13.2947 22.4584 11.868 21.8874 10.5365ZM8.2392 13.7512C8.677 12.0012 10.2759 10.7267 12.1604 10.7267H19.7365C20.2313 11.6588 20.5359 12.686 20.6501 13.7512H8.2392ZM20.6501 15.8055C20.5359 16.8708 20.2123 17.898 19.7365 18.83H12.1604C10.2759 18.83 8.69604 17.5365 8.2392 15.8055H20.6501ZM5.59331 8.52021C7.2684 6.8463 9.49551 5.93325 11.8559 5.93325C14.2163 5.93325 16.4434 6.8463 18.1184 8.52021C18.1756 8.57727 18.2136 8.61532 18.2707 8.67238H12.1604C10.5234 8.67238 9.0006 9.3001 7.83945 10.4604C6.92577 11.3735 6.33568 12.5148 6.14532 13.7512H3.06163C3.29006 11.7729 4.16568 9.94684 5.59331 8.52021ZM11.8559 23.6234C9.49551 23.6234 7.2684 22.7104 5.59331 21.0365C4.16568 19.6099 3.29006 17.7648 3.06163 15.8055H6.14532C6.35471 17.0419 6.94481 18.1833 7.83945 19.0963C9.0006 20.2566 10.5234 20.8843 12.1604 20.8843H18.2707C18.2136 20.9414 18.1756 20.9794 18.1184 21.0365C16.4434 22.7104 14.2163 23.6234 11.8559 23.6234Z" fill="white"/>
</g>
</g>
<defs>
<clipPath id="clip0_7032_6852">
<rect width="128.124" height="22.2438" fill="white" transform="translate(0.94873 3.87891)"/>
</clipPath>
</defs>
</svg>
